<svg width="16" height="17" viewBox="0 0 16 17" fill="none" xmlns="http://www.w3.org/2000/svg">
<path fill-rule="evenodd" clip-rule="evenodd" d="M8 0.579346C3.58 0.579346 0 4.15935 0 8.57935C0 12.1193 2.29 15.1093 5.47 16.1693C5.87 16.2393 6.02 15.9993 6.02 15.7893C6.02 15.5993 6.01 14.9693 6.01 14.2993C4 14.6693 3.48 13.8093 3.32 13.3593C3.23 13.1293 2.84 12.4193 2.5 12.2293C2.22 12.0793 1.82 11.7093 2.49 11.6993C3.12 11.6893 3.57 12.2793 3.72 12.5193C4.44 13.7293 5.59 13.3893 6.05 13.1793C6.12 12.6593 6.33 12.3093 6.56 12.1093C4.78 11.9093 2.92 11.2193 2.92 8.15935C2.92 7.28935 3.23 6.56935 3.74 6.00935C3.66 5.80935 3.38 4.98935 3.82 3.88935C3.82 3.88935 4.49 3.67935 6.02 4.70935C6.66 4.52935 7.34 4.43935 8.02 4.43935C8.7 4.43935 9.38 4.52935 10.02 4.70935C11.55 3.66935 12.22 3.88935 12.22 3.88935C12.66 4.98935 12.38 5.80935 12.3 6.00935C12.81 6.56935 13.12 7.27935 13.12 8.15935C13.12 11.2293 11.25 11.9093 9.47 12.1093C9.76 12.3593 10.01 12.8393 10.01 13.5893C10.01 14.6593 10 15.5193 10 15.7893C10 15.9993 10.15 16.2493 10.55 16.1693C12.1381 15.6332 13.5181 14.6125 14.4958 13.2509C15.4734 11.8894 15.9995 10.2555 16 8.57935C16 4.15935 12.42 0.579346 8 0.579346Z" fill="#3E00FF"/>
</svg>
