<svg width="44" height="49" viewBox="0 0 44 49" fill="none" xmlns="http://www.w3.org/2000/svg">
<path d="M4.68915 43.7017L0.838867 0.5H43.1612L39.3057 43.6949L21.9743 48.5L4.68915 43.7017Z" fill="#1572B6"/>
<path d="M22 44.8281L36.0057 40.9452L39.3006 4.0332H22V44.8281Z" fill="#33A9DC"/>
<path d="M22 19.6848H29.0114L29.4949 14.2591H22V8.96021H35.2857L35.1589 10.3813L33.8577 24.9836H22V19.6848Z" fill="#F7F7F7"/>
<path d="M22.0325 33.445L22.0085 33.4518L16.1079 31.8576L15.7308 27.6318H10.4114L11.1537 35.9513L22.0068 38.965L22.0325 38.9581V33.445Z" fill="#EBEBEB"/>
<path d="M28.5608 24.7585L27.9231 31.854L22.0139 33.4483V38.9614L32.8756 35.9511L32.9562 35.0563L33.8768 24.7585H28.5608Z" fill="#F7F7F7"/>
<path d="M22.0188 8.96021V14.2591H9.21998L9.11369 13.0676L8.87197 10.3813L8.74512 8.96021H22.0188ZM22 19.6848V24.9836H16.1731L16.0668 23.7922L15.8268 21.1059L15.7 19.6848H22Z" fill="#EBEBEB"/>
</svg>
