<svg width="16" height="17" viewBox="0 0 16 17" fill="none" xmlns="http://www.w3.org/2000/svg">
<path d="M13.5 10.5H12.5C12.3674 10.5 12.2402 10.5527 12.1464 10.6464C12.0527 10.7402 12 10.8674 12 11V14.5H2V4.5H6.5C6.63261 4.5 6.75979 4.44732 6.85355 4.35355C6.94732 4.25979 7 4.13261 7 4V3C7 2.86739 6.94732 2.74021 6.85355 2.64645C6.75979 2.55268 6.63261 2.5 6.5 2.5H1.5C1.10218 2.5 0.720644 2.65804 0.43934 2.93934C0.158035 3.22064 0 3.60218 0 4L0 15C0 15.3978 0.158035 15.7794 0.43934 16.0607C0.720644 16.342 1.10218 16.5 1.5 16.5H12.5C12.8978 16.5 13.2794 16.342 13.5607 16.0607C13.842 15.7794 14 15.3978 14 15V11C14 10.8674 13.9473 10.7402 13.8536 10.6464C13.7598 10.5527 13.6326 10.5 13.5 10.5ZM15.25 0.5H11.25C10.5822 0.5 10.2484 1.30969 10.7188 1.78125L11.8353 2.89781L4.21875 10.5116C4.14883 10.5812 4.09335 10.664 4.0555 10.7552C4.01764 10.8464 3.99816 10.9441 3.99816 11.0428C3.99816 11.1415 4.01764 11.2393 4.0555 11.3304C4.09335 11.4216 4.14883 11.5044 4.21875 11.5741L4.92719 12.2812C4.99687 12.3512 5.07966 12.4066 5.17082 12.4445C5.26199 12.4824 5.35973 12.5018 5.45844 12.5018C5.55715 12.5018 5.65489 12.4824 5.74605 12.4445C5.83721 12.4066 5.92001 12.3512 5.98969 12.2812L13.6025 4.66625L14.7188 5.78125C15.1875 6.25 16 5.92188 16 5.25V1.25C16 1.05109 15.921 0.860322 15.7803 0.71967C15.6397 0.579018 15.4489 0.5 15.25 0.5V0.5Z" fill="#3E00FF"/>
</svg>
