<svg width="48" height="48" viewBox="0 0 48 48" fill="none" xmlns="http://www.w3.org/2000/svg">
<path d="M47.0926 21.861L26.1337 0.905596C25.8467 0.618496 25.506 0.390748 25.131 0.235363C24.756 0.0799773 24.354 0 23.9481 0C23.5422 0 23.1402 0.0799773 22.7652 0.235363C22.3902 0.390748 22.0495 0.618496 21.7625 0.905596L17.4123 5.25567L22.9326 10.7758C23.5836 10.5535 24.284 10.5187 24.9539 10.6754C25.6237 10.8321 26.2361 11.174 26.7209 11.662C27.2058 12.15 27.5437 12.7644 27.6961 13.4353C27.8485 14.1061 27.8092 14.8063 27.5828 15.4559L32.902 20.7779C33.689 20.5009 34.5468 20.5 35.3344 20.7756C36.1219 21.0511 36.7921 21.5866 37.2346 22.2939C37.6771 23.0011 37.8656 23.838 37.769 24.6667C37.6724 25.4954 37.2965 26.2665 36.7032 26.8531C36.1025 27.4574 35.3106 27.8344 34.4628 27.9198C33.615 28.0052 32.7639 27.7935 32.0548 27.321C31.3457 26.8486 30.8227 26.1446 30.575 25.3293C30.3273 24.514 30.3704 23.638 30.6969 22.851L25.7377 17.8889V30.9481C26.4915 31.3212 27.0947 31.9414 27.4466 32.7053C27.7986 33.4692 27.8781 34.3307 27.6719 35.1461C27.4657 35.9615 26.9863 36.6816 26.3135 37.1864C25.6407 37.6912 24.8153 37.9502 23.9747 37.9202C23.1341 37.8902 22.3292 37.573 21.6942 37.0215C21.0591 36.47 20.6323 35.7175 20.4848 34.8894C20.3373 34.0614 20.4781 33.2078 20.8836 32.471C21.2892 31.7341 21.9351 31.1585 22.7136 30.8401V17.6609C22.2644 17.4769 21.8561 17.2057 21.5123 16.8632C21.1684 16.5206 20.8957 16.1133 20.71 15.6649C20.5242 15.2165 20.4291 14.7357 20.43 14.2503C20.431 13.7649 20.528 13.2845 20.7155 12.8368L15.2762 7.39471L0.905619 21.765C0.618512 22.0519 0.390758 22.3926 0.235369 22.7676C0.0799793 23.1426 0 23.5446 0 23.9505C0 24.3564 0.0799793 24.7584 0.235369 25.1334C0.390758 25.5084 0.618512 25.8491 0.905619 26.136L21.8645 47.0944C22.1515 47.3815 22.4922 47.6093 22.8672 47.7646C23.2422 47.92 23.6442 48 24.0501 48C24.4561 48 24.858 47.92 25.233 47.7646C25.608 47.6093 25.9488 47.3815 26.2357 47.0944L47.0956 26.235C47.6747 25.6551 48 24.8691 48 24.0495C48 23.2299 47.6747 22.4439 47.0956 21.864" fill="#DE4C36"/>
</svg>
