<svg width="44" height="49" viewBox="0 0 44 49" fill="none" xmlns="http://www.w3.org/2000/svg">
<path d="M4.68987 43.3778L0.838135 0.176025H43.1621L39.3063 43.371L21.9742 48.176L4.68987 43.3778Z" fill="#E44D26"/>
<path d="M22 44.5034L36.0052 40.6206L39.3002 3.7085H22V44.5034Z" fill="#F16529"/>
<path d="M22 19.7314H14.9887L14.5045 14.3057H22V9.00708H21.9817H8.71387L8.8407 10.4286L10.143 25.0299H22V19.7314Z" fill="#EBEBEB"/>
<path d="M22.0002 33.4922L21.977 33.4984L16.076 31.905L15.6988 27.6792H12.8313H10.3799L11.1222 35.9986L21.9758 39.0117L22.0002 39.0049V33.4922Z" fill="#EBEBEB"/>
<path d="M21.9817 19.7314V25.0299H28.5062L27.8912 31.9017L21.9817 33.4967V39.0092L32.8439 35.9987L32.9236 35.1035L34.1687 21.1542L34.298 19.7314H32.8702H21.9817Z" fill="#F7F7F7"/>
<path d="M21.9817 9.00708V12.2979V14.2927V14.3057H34.7631H34.7801L34.8864 13.1147L35.1278 10.4286L35.2546 9.00708H21.9817Z" fill="#F7F7F7"/>
</svg>
