<svg width="48" height="48" viewBox="0 0 48 48" fill="none" xmlns="http://www.w3.org/2000/svg">
<g clip-path="url(#clip0_1043_96)">
<path d="M0 0H48V48H0V0Z" fill="#F7DF1E"/>
<path d="M12.621 40.1124L16.2942 37.8894C17.0029 39.1458 17.6475 40.2089 19.1938 40.2089C20.676 40.2089 21.6107 39.6292 21.6107 37.3739V22.0368H26.1214V37.4377C26.1214 42.1096 23.3828 44.2362 19.3872 44.2362C15.7787 44.2362 13.6842 42.3674 12.6208 40.112L12.621 40.1124ZM28.5715 39.629L32.2442 37.5026C33.2112 39.0815 34.4678 40.2414 36.6908 40.2414C38.56 40.2414 39.7517 39.3069 39.7517 38.018C39.7517 36.4715 38.5274 35.9236 36.4652 35.0217L35.3378 34.538C32.0834 33.1529 29.9247 31.4129 29.9247 27.7398C29.9247 24.3566 32.5022 21.7788 36.5299 21.7788C39.3975 21.7788 41.4597 22.7778 42.9417 25.3876L39.4294 27.6432C38.656 26.2578 37.8186 25.7101 36.5297 25.7101C35.2086 25.7101 34.3709 26.5479 34.3709 27.6432C34.3709 28.9964 35.2086 29.5445 37.1417 30.3822L38.2693 30.8654C42.1037 32.5089 44.2624 34.1842 44.2624 37.9537C44.2624 42.0138 41.0727 44.2368 36.7873 44.2368C32.5988 44.2368 29.8922 42.2392 28.5713 39.6292" fill="black"/>
</g>
<defs>
<clipPath id="clip0_1043_96">
<rect width="48" height="48" fill="white"/>
</clipPath>
</defs>
</svg>
