<svg width="61" height="30" viewBox="0 0 61 30" fill="none" xmlns="http://www.w3.org/2000/svg">
<path d="M6.58984 0.5625V29H0.242188V0.5625H6.58984ZM20.7305 29H14.4805L14.5195 24.0781H20.7305C22.1497 24.0781 23.3477 23.7526 24.3242 23.1016C25.3008 22.4375 26.043 21.4609 26.5508 20.1719C27.0586 18.8698 27.3125 17.2878 27.3125 15.4258V14.1172C27.3125 12.7109 27.1693 11.474 26.8828 10.4062C26.5964 9.32552 26.1732 8.42057 25.6133 7.69141C25.0534 6.96224 24.3568 6.41536 23.5234 6.05078C22.7031 5.6862 21.7591 5.50391 20.6914 5.50391H14.3633V0.5625H20.6914C22.6185 0.5625 24.3763 0.888021 25.9648 1.53906C27.5664 2.1901 28.9466 3.12109 30.1055 4.33203C31.2773 5.54297 32.1823 6.97526 32.8203 8.62891C33.4583 10.2826 33.7773 12.125 33.7773 14.1562V15.4258C33.7773 17.444 33.4583 19.2865 32.8203 20.9531C32.1823 22.6068 31.2773 24.0391 30.1055 25.25C28.9466 26.4479 27.5729 27.3724 25.9844 28.0234C24.3958 28.6745 22.6445 29 20.7305 29ZM18.0938 0.5625V29H11.7266V0.5625H18.0938ZM54.0117 19.4688H60.3398C60.2357 21.4219 59.7018 23.1471 58.7383 24.6445C57.7878 26.1289 56.4661 27.2943 54.7734 28.1406C53.0807 28.974 51.069 29.3906 48.7383 29.3906C46.8763 29.3906 45.2096 29.0716 43.7383 28.4336C42.2669 27.7956 41.0169 26.8841 39.9883 25.6992C38.9727 24.5013 38.1914 23.0625 37.6445 21.3828C37.1107 19.6901 36.8438 17.7826 36.8438 15.6602V13.9219C36.8438 11.7995 37.1237 9.89193 37.6836 8.19922C38.2435 6.50651 39.0443 5.0612 40.0859 3.86328C41.1276 2.66536 42.3776 1.7474 43.8359 1.10938C45.2943 0.471354 46.9219 0.152344 48.7188 0.152344C51.1406 0.152344 53.1849 0.588542 54.8516 1.46094C56.5182 2.33333 57.8073 3.53125 58.7188 5.05469C59.6432 6.57812 60.1966 8.31641 60.3789 10.2695H54.0312C53.9792 9.16276 53.7708 8.23177 53.4062 7.47656C53.0417 6.70833 52.4818 6.12891 51.7266 5.73828C50.9714 5.34766 49.9688 5.15234 48.7188 5.15234C47.8073 5.15234 47.0065 5.32161 46.3164 5.66016C45.6393 5.9987 45.0729 6.52604 44.6172 7.24219C44.1745 7.95833 43.8424 8.86979 43.6211 9.97656C43.3997 11.0703 43.2891 12.3724 43.2891 13.8828V15.6602C43.2891 17.1576 43.3867 18.4531 43.582 19.5469C43.7773 20.6406 44.0898 21.5456 44.5195 22.2617C44.9622 22.9779 45.5286 23.5117 46.2188 23.8633C46.9089 24.2148 47.7487 24.3906 48.7383 24.3906C49.8711 24.3906 50.8151 24.2148 51.5703 23.8633C52.3255 23.4987 52.9049 22.9518 53.3086 22.2227C53.7122 21.4935 53.9466 20.5755 54.0117 19.4688Z" fill="#3E00FF"/>
</svg>
