<svg width="48" height="48" viewBox="0 0 48 48" fill="none" xmlns="http://www.w3.org/2000/svg">
<g clip-path="url(#clip0_1043_81)">
<path d="M24 0C37.2 0 48 10.8 48 24C48 37.2 37.2 48 24 48C10.8 48 0 37.2 0 24C0 10.8 10.8 0 24 0ZM19.2 31.95C19.5 33.3 19.5 34.5 19.2 35.55L19.05 36C19.05 36.15 18.9 36.3 18.9 36.3C18.6 36.9 18.3 37.35 17.85 37.95C16.5 39.45 14.55 40.05 13.65 39.6C12.75 39.15 13.2 36.9 14.85 35.25C16.65 33.45 19.05 32.25 19.05 32.25L19.2 31.95ZM39 10.2C37.95 6 30.9 4.5 24.15 6.9C20.25 8.4 15.9 10.65 12.75 13.5C9 16.95 8.55 19.95 8.7 21.15C9.6 25.5 15.6 28.5 18.15 30.6C17.4 30.9 12 33.6 10.8 36.45C9.45 39.45 10.95 41.55 12 41.7C15.15 42.6 18.45 40.95 20.1 38.4C21.75 35.85 21.6 32.7 20.85 31.05C22.0169 30.6897 23.2572 30.638 24.45 30.9C28.65 31.35 29.55 34.05 29.25 35.1C28.95 36.15 28.2 36.75 27.9 37.05C27.6 37.2 27.45 37.35 27.6 37.35C27.6 37.5 27.75 37.5 28.05 37.5C28.35 37.5 30.3 36.6 30.3 34.5C30.45 31.95 27.9 29.1 23.55 29.1C21.75 29.1 20.55 29.25 19.8 29.55C19.8 29.4 19.65 29.4 19.65 29.4C16.95 26.55 12 24.45 12.15 20.55C12.15 19.2 12.75 15.45 21.75 10.95C29.1 7.2 35.1 8.25 36.15 10.5C37.65 13.65 33 19.65 25.35 20.55C22.35 20.85 20.85 19.8 20.55 19.35C20.1 18.9 20.1 18.9 19.95 18.9C19.65 19.05 19.8 19.35 19.95 19.65C20.25 20.25 21.15 21.3 22.8 21.9C24.15 22.35 27.6 22.65 31.8 21C36.45 19.2 40.05 14.25 39 10.05V10.2Z" fill="#CD6799"/>
</g>
<defs>
<clipPath id="clip0_1043_81">
<rect width="48" height="48" fill="white"/>
</clipPath>
</defs>
</svg>
