<svg width="44" height="48" viewBox="0 0 44 48" fill="none" xmlns="http://www.w3.org/2000/svg">
<g clip-path="url(#clip0_1043_86)">
<path d="M21.9999 0.00805664L43.1861 11.9923V35.9687L21.9999 47.9529L0.813721 35.9687V11.9923L21.9999 0.00805664Z" fill="#F7F7F7"/>
<path d="M39.4045 35.1371L22.7035 44.5948V37.2397L33.1127 31.5075L39.4045 35.1371ZM40.5477 34.1058V14.3427L34.4398 17.8682V30.5799L40.5477 34.1058ZM4.53117 35.137L21.2324 44.587V37.2317L10.8231 31.5075L4.53117 35.1371V35.137ZM3.38794 34.1058V14.3427L9.49602 17.8682V30.5799L3.38794 34.1058ZM4.09966 13.0636L21.2324 3.3737V10.4893L10.2556 16.5252L10.1675 16.5732L4.09966 13.0634V13.0636ZM39.8282 13.0636L22.7035 3.37354V10.4891L33.6723 16.533L33.7602 16.581L39.8282 13.0632V13.0636Z" fill="#8ED6FB"/>
<path d="M21.2324 35.5608L10.967 29.9084V18.7237L21.2324 24.6479V35.5608ZM22.7035 35.5608L32.9689 29.9165V18.7237L22.7035 24.6479V35.5608ZM11.6546 17.4286L21.968 11.7603L32.2731 17.4286L21.968 23.3767L11.6546 17.4286Z" fill="#1C78C0"/>
</g>
<defs>
<clipPath id="clip0_1043_86">
<rect width="42.3724" height="48" fill="white" transform="translate(0.813721)"/>
</clipPath>
</defs>
</svg>
